Coordinates
version=1
nRows=14
nColumns=40
inDegrees=yes

Units are S.I. units (second, meters, Newtons, ...)
Angles are in degrees.

endheader
time	pelvis_tilt	pelvis_list	pelvis_rotation	pelvis_tx	pelvis_ty	pelvis_tz	hip_flexion_r	hip_adduction_r	hip_rotation_r	knee_angle_r	knee_angle_r_beta	ankle_angle_r	subtalar_angle_r	mtp_angle_r	hip_flexion_l	hip_adduction_l	hip_rotation_l	knee_angle_l	knee_angle_l_beta	ankle_angle_l	subtalar_angle_l	mtp_angle_l	lumbar_extension	lumbar_bending	lumbar_rotation	arm_flex_r	arm_add_r	arm_rot_r	elbow_flex_r	pro_sup_r	wrist_flex_r	wrist_dev_r	arm_flex_l	arm_add_l	arm_rot_l	elbow_flex_l	pro_sup_l	wrist_flex_l	wrist_dev_l
     27.02128571	     -0.58141491	     -4.87624816	     -4.89557279	      0.95545683	      0.91302683	      0.42284117	     28.02033817	     -7.79233344	     -6.58360583	     62.32761819	     62.32761819	     11.64161116	    -19.37109342	     18.24685083	     13.76987415	     -1.29211718	     -2.28527864	     34.63749231	     34.63749231	     24.01004955	    -18.18263047	      9.20405834	    -11.74000118	      6.83341613	      2.03956986	      5.60351544	    -13.21489948	     -4.10550597	     34.24180651	     46.52964298	      0.00000000	      0.00000000	     27.04957438	    -15.59429820	      3.78443978	     47.53853518	     46.27621954	      0.00000000	      0.00000000
     27.04007143	     -0.67127051	     -4.98035217	     -5.44548262	      0.95459904	      0.91429089	      0.42311462	     28.70591302	     -7.31991063	     -6.54133286	     59.51556797	     59.51556797	     10.90700273	    -19.28486767	     14.77466761	     13.00183707	     -1.44469121	     -2.78520310	     33.78616580	     33.78616580	     23.88281394	    -18.15798227	      8.83938927	    -11.70156681	      7.17795318	      1.14570776	      3.96069640	    -12.89631873	     -5.72247861	     30.62106859	     46.73058883	      0.00000000	      0.00000000	     26.73219233	    -16.36696137	      1.77298400	     50.82542725	     46.51898615	      0.00000000	      0.00000000
     27.05885714	     -0.78256400	     -5.12072074	     -6.04957987	      0.95363471	      0.91611217	      0.42386929	     29.28617495	     -6.57824413	     -6.29090069	     56.32511524	     56.32511524	     10.87186797	    -19.09442275	     14.37182416	     12.10647790	     -1.65368603	     -3.31962590	     32.66444569	     32.66444569	     23.79197907	    -18.04182156	      8.95671225	    -11.70695077	      7.54689513	      1.17630051	      1.11961421	    -13.25312277	     -5.93819459	     29.26596724	     46.77174444	      0.00000000	      0.00000000	     27.67688556	    -16.67673295	      1.30808377	     52.09902858	     46.58646552	      0.00000000	      0.00000000
     27.07764286	     -0.99922645	     -5.18149860	     -6.66300421	      0.95270003	      0.91801334	      0.42495224	     29.59079108	     -5.97054149	     -6.25733925	     52.38862689	     52.38862689	      9.16725282	    -18.88339596	      8.99893988	     11.18291270	     -1.81334653	     -3.97535231	     31.24173649	     31.24173649	     23.22215988	    -17.91760515	      8.04509677	    -11.65950010	      7.78754094	      0.96033305	     -1.51878963	    -13.28723503	     -7.82595715	     28.05196474	     46.89429273	      0.00000000	      0.00000000	     27.78774657	    -17.23113314	     -0.09725005	     55.42094635	     46.77424305	      0.00000000	      0.00000000
     27.09642857	     -1.16384663	     -5.28377689	     -7.25748085	      0.95169040	      0.92028401	      0.42640701	     29.58739440	     -5.22735077	     -6.20727638	     48.07953743	     48.07953743	      7.60363385	    -18.44710818	      5.21526360	     10.14000519	     -2.01000390	     -4.59218393	     29.70802721	     29.70802721	     22.73039146	    -17.71928459	      7.51458161	    -11.68094466	      8.02263923	      0.81027900	     -3.99919517	    -13.35947295	     -9.39754304	     27.26546800	     46.97210389	      0.00000000	      0.00000000	     28.31133066	    -17.81097966	     -0.83013903	     57.54796518	     46.89567942	      0.00000000	      0.00000000
     27.11521429	     -1.43468036	     -5.37406413	     -7.87327049	      0.95065573	      0.92231566	      0.42826651	     29.54089912	     -4.41001023	     -6.09767392	     43.66818111	     43.66818111	      6.18748109	    -17.54304790	      2.43275127	      9.20077128	     -2.23555270	     -5.28947532	     28.16231576	     28.16231576	     22.21436669	    -17.42597539	      6.97594978	    -11.60312494	      8.23405817	      0.83776434	     -6.58789710	    -13.57560028	    -10.55672296	     26.99887068	     47.00875946	      0.00000000	      0.00000000	     28.81720251	    -18.33728351	     -1.45650254	     60.06227480	     47.00602450	      0.00000000	      0.00000000
     27.13400000	     -1.72292640	     -5.42375291	     -8.42360005	      0.94967669	      0.92412409	      0.43033905	     29.42416844	     -3.65688300	     -6.05151707	     39.46066240	     39.46066240	      5.65890539	    -15.65461414	      2.61910031	      8.31936974	     -2.40254963	     -5.90304045	     26.70643720	     26.70643720	     22.00819216	    -17.02062075	      7.18826082	    -11.39325713	      8.39314303	      0.73139961	     -8.76459949	    -13.79066709	    -10.75062700	     26.30016558	     47.02939850	      0.00000000	      0.00000000	     29.69823687	    -18.90265926	     -1.81501461	     61.14101355	     47.05966770	      0.00000000	      0.00000000
     27.15278571	     -1.77911840	     -5.40082586	     -8.96726829	      0.94891077	      0.92580428	      0.43266075	     28.91301695	     -3.13914021	     -6.30336085	     35.39829977	     35.39829977	      5.06195976	    -12.85610454	      2.21058771	      7.15935323	     -2.47479962	     -6.66455342	     25.21042966	     25.21042966	     21.74378753	    -16.47609677	      7.01096895	    -11.51394926	      8.34660941	      0.95078760	    -11.01723469	    -13.91100261	    -11.16199443	     26.04091153	     47.04326229	      0.00000000	      0.00000000	     30.59639306	    -19.29336255	     -2.29946873	     63.25934049	     47.14061892	      0.00000000	      0.00000000
     27.17157143	     -1.95148770	     -5.35424934	     -9.42871280	      0.94824808	      0.92683769	      0.43511092	     28.43971466	     -2.66025335	     -6.68703144	     31.63045316	     31.63045316	      4.36404884	     -9.96146400	      2.14932768	      6.25176664	     -2.54697476	     -7.34680419	     23.94732686	     23.94732686	     21.54893018	    -15.91123193	      6.73257840	    -11.39949054	      8.32897358	      0.91554894	    -12.98909106	    -13.99442503	    -11.56918793	     26.00206129	     47.05117745	      0.00000000	      0.00000000	     31.29062710	    -19.77932377	     -2.75491995	     65.08247548	     47.21245176	      0.00000000	      0.00000000
     27.19035714	     -2.04655346	     -5.17005196	     -9.83020335	      0.94777768	      0.92715365	      0.43768226	     27.95311000	     -2.43121142	     -7.24682440	     28.45546862	     28.45546862	      3.41061921	     -6.90709826	      0.85167954	      5.32875037	     -2.48418008	     -8.14412139	     22.74380578	     22.74380578	     20.79212358	    -15.44051885	      4.69089855	    -11.45412724	      8.15506614	      0.56629267	    -15.15225068	    -13.85019486	    -13.27186034	     28.12190720	     47.02678531	      0.00000000	      0.00000000	     31.13575261	    -20.55627800	     -3.97686099	     69.09125287	     47.38810798	      0.00000000	      0.00000000
     27.20914286	     -2.10937559	     -5.05375496	    -10.16597339	      0.94747251	      0.92720874	      0.44045672	     27.39687809	     -2.07978672	     -7.65936188	     25.78590341	     25.78590341	      2.85824067	     -4.42732775	      1.26129372	      4.51642613	     -2.47893207	     -8.74304647	     21.90433563	     21.90433563	     20.84952249	    -14.87559297	      4.46547484	    -11.35126354	      8.03323541	      0.61862780	    -16.52541987	    -13.79930690	    -13.46513508	     27.85420871	     47.03185127	      0.00000000	      0.00000000	     32.10651986	    -20.81130756	     -4.31881112	     70.25310426	     47.44276683	      0.00000000	      0.00000000
     27.22792857	     -2.09878114	     -4.88446209	    -10.45135202	      0.94741758	      0.92680167	      0.44331014	     26.85252255	     -1.90225712	     -8.26434138	     23.83140875	     23.83140875	      2.51729086	     -1.96137488	      1.50650727	      3.71144011	     -2.43290842	     -9.39765457	     21.24391518	     21.24391518	     20.97393808	    -14.17291153	      3.98013219	    -11.31104216	      7.84505608	      0.72417573	    -17.75736672	    -13.67181056	    -13.73457483	     27.94308187	     47.02673504	      0.00000000	      0.00000000	     32.94949454	    -20.95144282	     -4.74177227	     71.80729345	     47.50793521	      0.00000000	      0.00000000
     27.24671429	     -2.13482181	     -4.62562437	    -10.70746426	      0.94754044	      0.92574805	      0.44629722	     26.54268040	     -1.87875244	     -8.90456541	     22.69824011	     22.69824011	      2.34545701	      0.06177736	      1.36623236	      3.07935334	     -2.34648599	    -10.15747286	     20.79420225	     20.79420225	     20.88883979	    -13.48054644	      2.52701508	    -11.23228226	      7.57593109	      0.53595805	    -18.92524947	    -13.45568714	    -14.64908114	     29.34862949	     46.98707286	      0.00000000	      0.00000000	     33.18154734	    -21.21514503	     -5.82856251	     74.37451034	     47.64496172	      0.00000000	      0.00000000
     27.26550000	     -2.10638826	     -4.45310525	    -10.90709658	      0.94794819	      0.92476041	      0.44938810	     26.01705975	     -1.70858262	     -9.17862375	     21.75738050	     21.75738050	      2.24883998	      1.11668741	      1.33296406	      2.36188113	     -2.27444517	    -10.56360113	     20.37702249	     20.37702249	     21.11785605	    -13.06497705	      2.14724618	    -11.12576491	      7.43932225	      0.64661048	    -19.48823767	    -13.27397823	    -14.79562543	     29.41756595	     46.97855103	      0.00000000	      0.00000000	     33.93483602	    -21.17588676	     -6.20398660	     75.47929699	     47.69929029	      0.00000000	      0.00000000
